<?xml version="1.0" encoding="iso-8859-1"?>
<!-- Generator: Adobe Illustrator 19.0.0, SVG Export Plug-In . SVG Version: 6.00 Build 0)  -->
<svg version="1.1" id="Layer_1" xmlns="http://www.w3.org/2000/svg" xmlns:xlink="http://www.w3.org/1999/xlink" x="0px" y="0px"
	 viewBox="0 0 496.159 496.159" style="enable-background:new 0 0 496.159 496.159;" xml:space="preserve">
<path style="fill:#D8DBBA;" d="M248.083,0.003C111.071,0.003,0,111.063,0,248.085c0,137.001,111.07,248.07,248.083,248.07
	c137.006,0,248.076-111.069,248.076-248.07C496.159,111.062,385.089,0.003,248.083,0.003z"/>
<path style="fill:#B5392C;" d="M396.037,171.185c0-4.358-10.169-10.169-10.169-10.169c-6.538-3.633-10.896-5.812-10.896-5.812
	l-55.932-2.906c0,0-14.528,14.529-13.075,35.594c1.081,15.677,34.867,10.714,34.867,10.714c3.632-7.99,24.698-15.798,24.698-15.798
	c5.811-2.905,18.886-2.18,18.886-2.18C398.943,179.175,396.037,171.185,396.037,171.185z"/>
<path style="fill:#CB4A35;" d="M386.594,133.412c-8.718,1.453-23.971,1.453-23.971,1.453c-15.255,0-19.613-11.379-19.613-11.379
	c-29.056,4.358-29.056,57.143-29.056,57.143c15.254-2.179,33.899-4.358,50.122-9.442c16.222-5.085,32.688-31.962,32.688-31.962
	C404.754,128.327,386.594,133.412,386.594,133.412z"/>
<path style="fill:#EDC92F;" d="M402.387,295.412c-4.846-40.156-47.028-58.126-56.956-70.717c-9.927-12.59-3.875-27.119-3.875-27.119
	c-23.245,8.717-26.15-24.213-26.15-24.213c-0.969-10.654,14.528-11.623,19.371-18.402c3.729-5.22,6.45-17.642,8.232-23.729
	c0.532-1.818,4.358-1.453,4.358-1.453c-51.331-80.388-120.218-17.796-128.246-9.26c-53.571,56.965,23.969,119.85,23.969,119.85
	c-58.436,15.076-87.279,1.569-93.7-8.718c-43.187-69.184-54.809,0.792-54.809,0.792c-5.811,139.468,71.671,157.871,71.671,157.871
	c93.947,35.835,169.036,7.098,181.114,2.421C390.387,376.079,407.054,334.079,402.387,295.412z"/>
<ellipse style="fill:#DBDBDB;" cx="303.3" cy="134.379" rx="14.04" ry="14.286"/>
<ellipse style="fill:#606060;" cx="303.3" cy="134.379" rx="8.208" ry="8.35"/>
<ellipse style="fill:#D3D3D3;" cx="304.75" cy="130.749" rx="3.366" ry="3.423"/>
<g>
	<path style="fill:#E8AF21;" d="M360.387,248.746c0,0,34.667,52.667,16.667,110C377.054,358.746,427.721,292.746,360.387,248.746z"
		/>
	<path style="fill:#E8AF21;" d="M106.387,237.079c0,0-2,110,62,139C168.387,376.079,123.387,319.079,106.387,237.079z"/>
	<path style="fill:#E8AF21;" d="M212.387,149.079c0,0-8,64,54,88C266.387,237.079,226.387,203.079,212.387,149.079z"/>
</g>
<g>
</g>
<g>
</g>
<g>
</g>
<g>
</g>
<g>
</g>
<g>
</g>
<g>
</g>
<g>
</g>
<g>
</g>
<g>
</g>
<g>
</g>
<g>
</g>
<g>
</g>
<g>
</g>
<g>
</g>
</svg>
